P2 
10 8 
256 
0 0 255 0 0 0 0 255 0 0 
0 0 0 255 0 0 255 0 0 0 
0 0 255 255 255 255 255 255 0 0 
0 255 255 0 255 255 0 255 255 0 
255 255 255 255 255 255 255 255 255 255 
255 0 255 0 0 0 0 255 0 255 
255 0 255 0 0 0 0 255 0 255 
0 0 0 255 0 0 255 0 0 0 